<?xml version="1.0" encoding="UTF-8" standalone="no"?>
<!-- Svg Vector Icons : http://www.onlinewebfonts.com/icon -->

<svg
   version="1.1"
   x="0px"
   y="0px"
   width="100"
   height="100"
   viewBox="0 0 1000 1000"
   xml:space="preserve"
   id="svg79"
   xmlns="http://www.w3.org/2000/svg"
>
<path
   d="m 484.52779,695.5083 c -115.07313,1.97107 -222.97376,19.25268 -287.26652,46.07234 -82.35005,34.34254 -82.18966,79.61007 0.48885,113.54915 60.87075,24.93895 151.85223,40.74539 260.73058,45.26752 23.11394,0.93931 76.98023,1.07379 98.46716,0.17862 84.79435,-3.40211 154.45694,-12.62498 212.88339,-28.25281 60.06106,-15.98505 96.35131,-35.01287 110.51297,-57.98285 4.72057,-7.79185 5.20944,-22.92585 0.81732,-30.67147 C 871.07117,765.89339 847.63642,750.40216 809.3831,736.29782 793.27364,730.38669 757.46462,720.49138 736.63458,716.1941 663.22915,701.06009 576.31895,693.94068 484.52779,695.5083 Z m 4.88098,23.4617 c 0,7.25389 1.29853,8.6408 9.76192,9.85118 2.6047,0.35723 8.13494,0.67243 12.36663,0.67243 6.34755,0 8.30299,-0.22484 13.02355,-1.52138 3.09357,-0.85106 5.53023,-1.88072 5.69829,-2.37244 0,-0.44759 0.16039,-3.53659 0.32081,-6.85044 l 0.32845,-6.04351 8.95225,0.13449 c 24.57286,0.3131 58.10563,2.59728 88.37678,5.95525 95.21318,10.56775 167.15203,34.34255 187.49321,61.92291 2.11584,3.00075 4.3921,6.89457 5.04136,8.6408 l 1.13812,3.26761 h -23.92359 c -27.01716,0 -31.40928,0.35723 -35.80902,2.86627 -3.25399,1.88071 -3.25399,3.4021 -0.32081,5.37317 4.07128,2.73178 6.9968,2.95452 34.99169,2.95452 h 25.06173 l -1.13812,3.44834 c -5.20942,15.49122 -30.76001,32.37145 -68.84528,45.35577 -11.55697,3.94006 -36.12982,10.56564 -50.1311,13.47603 -46.54866,9.80495 -104.32584,16.2078 -159.82676,17.64092 l -11.55697,0.31311 v -6.71595 c 0,-7.34426 -0.8173,-8.14908 -8.95224,-9.49185 -6.18714,-1.0738 -13.83323,-1.12003 -21.47932,-0.26898 -9.11264,1.07379 -10.57924,2.4628 -10.57924,9.89531 v 6.49321 h -4.3921 c -2.6047,0 -11.87778,-0.3131 -20.66961,-0.67243 -87.88029,-3.62906 -164.86814,-17.14921 -214.18192,-37.47778 -28.97261,-11.99877 -45.0821,-24.35688 -51.26923,-39.44675 l -0.97772,-2.55315 h 25.39018 25.55058 l 5.53025,-1.5235 c 5.04899,-1.38689 5.53022,-1.79035 5.53022,-4.07453 0,-2.28418 -0.48886,-2.68554 -5.53022,-4.07454 l -5.53025,-1.52139 h -25.39017 c -13.99363,0 -25.39019,-0.0903 -25.39019,-0.17861 0,-0.13449 1.13814,-2.50693 2.4443,-5.28282 15.13939,-31.70114 92.11963,-58.25183 201.00561,-69.44579 17.90451,-1.83658 42.80583,-3.62695 60.22148,-4.29938 6.676,-0.26898 13.99363,-0.58208 16.27752,-0.67244 12.36665,-0.48961 11.38893,-1.02756 11.38893,6.22634 z"
   id="path411"
   style="fill:#4c8476;fill-opacity:1;stroke-width:0.0400639" /><text
   xml:space="preserve"
   style="font-size:180.872px;fill:#364156;fill-opacity:1;stroke-width:11.3045"
   x="436.00052"
   y="169.36891"
   id="text4588"><tspan
     id="tspan4586"
     style="font-style:normal;font-variant:normal;font-weight:bold;font-stretch:normal;font-size:180.872px;font-family:sans-serif;-inkscape-font-specification:'sans-serif Bold';stroke-width:11.3045"
     x="436.00052"
     y="169.36891" /></text><g
   id="g11026"
   transform="matrix(2.4738094,0,0,2.4738094,151.28155,77.717257)"
   style="fill:#364156;fill-opacity:1"><g
     id="g10970"
     style="fill:#364156;fill-opacity:1">
	<g
   id="g10968"
   style="fill:#364156;fill-opacity:1">
		<path
   style="fill:#364156;fill-opacity:1"
   d="M 146.667,0 C 94.903,0 52.946,41.957 52.946,93.721 c 0,22.322 7.849,42.789 20.891,58.878 4.204,5.178 11.237,13.331 14.903,18.906 21.109,32.069 48.19,78.643 56.082,116.864 1.354,6.527 2.986,6.641 4.743,0.212 5.629,-20.609 20.228,-65.639 50.377,-112.757 3.595,-5.619 10.884,-13.483 15.409,-18.379 6.554,-7.098 12.009,-15.224 16.154,-24.084 5.651,-12.086 8.882,-25.466 8.882,-39.629 C 240.387,41.962 198.43,0 146.667,0 Z m 0,144.358 c -28.892,0 -52.313,-23.421 -52.313,-52.313 0,-28.887 23.421,-52.307 52.313,-52.307 28.892,0 52.313,23.421 52.313,52.307 0,28.893 -23.421,52.313 -52.313,52.313 z"
   id="path10964" />
		<circle
   style="fill:#364156;fill-opacity:1"
   cx="146.66701"
   cy="90.195999"
   r="21.756001"
   id="circle10966" />
	</g>
</g><g
     id="g10972"
     style="fill:#364156;fill-opacity:1">
</g><g
     id="g10974"
     style="fill:#364156;fill-opacity:1">
</g><g
     id="g10976"
     style="fill:#364156;fill-opacity:1">
</g><g
     id="g10978"
     style="fill:#364156;fill-opacity:1">
</g><g
     id="g10980"
     style="fill:#364156;fill-opacity:1">
</g><g
     id="g10982"
     style="fill:#364156;fill-opacity:1">
</g><g
     id="g10984"
     style="fill:#364156;fill-opacity:1">
</g><g
     id="g10986"
     style="fill:#364156;fill-opacity:1">
</g><g
     id="g10988"
     style="fill:#364156;fill-opacity:1">
</g><g
     id="g10990"
     style="fill:#364156;fill-opacity:1">
</g><g
     id="g10992"
     style="fill:#364156;fill-opacity:1">
</g><g
     id="g10994"
     style="fill:#364156;fill-opacity:1">
</g><g
     id="g10996"
     style="fill:#364156;fill-opacity:1">
</g><g
     id="g10998"
     style="fill:#364156;fill-opacity:1">
</g><g
     id="g11000"
     style="fill:#364156;fill-opacity:1">
</g></g></svg>
