<?xml version="1.0" encoding="UTF-8" standalone="no"?>
<!-- Svg Vector Icons : http://www.onlinewebfonts.com/icon -->

<svg
   version="1.1"
   x="0px"
   y="0px"
   width="100"
   height="100"
   viewBox="0 0 1000 1000"
   xml:space="preserve"
   id="svg79"
   xmlns="http://www.w3.org/2000/svg"><defs
   id="defs83" />
<path
   d="m 464.89631,118.16679 c -20.06,57.12 -36.05,104.6 -35.54,105.11 0.51,0.51 8.38,-1.02 17.52,-3.3 22.6,-5.59 91.4,-5.59 113.74,0 8.63,2.03 15.74,3.3 15.74,2.28 0,-3.3 -72.36,-208.44 -73.63,-208.44 -0.76,0 -17.77,46.97 -37.83,104.35 z"
   id="path57"
   style="stroke-width:0.1;fill-opacity:1;fill:#5a8277" /><path
   d="m 155.40631,157.76679 c 0.76,1.02 22.09,45.95 47.73,99.78 25.64,53.83 47.22,98.76 48.24,99.78 1.02,1.02 6.86,-5.84 12.95,-15.23 14.22,-22.09 54.33,-62.46 76.42,-76.93 9.39,-6.09 16.76,-11.42 16.5,-11.68 -0.25,-0.25 -42.65,-20.82 -94.45,-45.45 -51.54,-24.88 -97.24,-46.71 -101.3,-48.75 -3.8,-2.02 -6.59,-2.79 -6.09,-1.52 z"
   id="path59"
   style="stroke-width:0.1;fill:#5a8277;fill-opacity:1" /><path
   d="m 750.26631,204.99679 c -53.06,25.39 -96.99,46.97 -97.75,47.99 -0.76,0.76 6.09,6.6 15.23,12.44 21.33,14.22 62.2,55.09 74.9,75.15 5.59,8.89 10.66,15.99 11.43,15.99 0.76,0 14.22,-26.66 29.71,-59.15 15.49,-32.24 36.81,-76.93 47.48,-99.02 10.41,-21.83 18.28,-39.86 17.26,-39.86 -1.02,-0.01 -45.2,21.07 -98.26,46.46 z"
   id="path61"
   style="stroke-width:0.1;fill:#5a8277;fill-opacity:1" /><path
   d="m 115.04631,466.49679 c -56.369996,19.8 -102.319996,36.56 -102.319996,37.32 0,1.78 208.189996,74.39 209.459996,73.12 0.76,-0.51 -0.76,-9.65 -3.05,-20.06 -5.33,-25.14 -5.33,-80.74 0.25,-105.87 4.82,-22.34 4.82,-20.82 1.02,-20.57 -1.78,0.01 -49.26,16.26 -105.36,36.06 z"
   id="path65"
   style="stroke-width:0.1;fill:#5a8277;fill-opacity:1" /><path
   d="m 785.55631,436.78679 c 8.63,34.27 10.16,87.59 3.3,120.34 -2.03,10.41 -3.56,19.29 -3.3,19.55 1.01,1.02 207.17,-71.59 207.17,-72.86 0,-0.76 -45.45,-17.26 -101.05,-36.56 -55.35,-19.3 -102.32,-35.8 -104.35,-36.56 -2.79,-1.02 -3.04,0.25 -1.77,6.09 z"
   id="path67"
   style="stroke-width:0.1;fill:#5a8277;fill-opacity:1" /><path
   d="m 203.64631,749.32679 c -26.66,55.6 -48.24,101.3 -47.73,101.55 0.25,0.51 36.56,-16.5 80.48,-37.57 43.92,-21.07 89.37,-42.91 101.05,-48.24 l 21.07,-9.9 -16,-10.66 c -21.58,-13.96 -67.28,-60.17 -79.47,-80.23 -5.59,-8.63 -10.16,-15.74 -10.41,-15.74 -0.24,-0.01 -22.33,45.44 -48.99,100.79 z"
   id="path69"
   style="stroke-width:0.1;fill:#5a8277;fill-opacity:1" /><path
   d="m 740.36631,671.12679 c -14.47,21.58 -56.62,62.45 -76.17,74.13 -7.62,4.83 -14.22,9.39 -14.22,10.16 0,1.27 195.75,96.22 198.79,96.22 0.76,0 -20.06,-44.43 -46.21,-99.02 -25.89,-54.33 -47.98,-99.02 -48.74,-99.02 -0.76,0.01 -6.85,7.88 -13.45,17.53 z"
   id="path71"
   style="stroke-width:0.1;fill:#5a8277;fill-opacity:1" /><path
   d="m 429.09631,785.11679 c 0,3.56 72.36,208.7 73.63,208.7 1.52,0 73.88,-206.16 72.87,-207.17 -0.25,-0.51 -10.92,1.01 -23.36,3.3 -27.42,4.57 -88.86,3.3 -109.68,-2.54 -7.36,-2.29 -13.46,-3.05 -13.46,-2.29 z"
   id="path73"
   style="stroke-width:0.1;fill:#5a8277;fill-opacity:1" /><path
   d="m 482.9242,243.42348 c -79.90661,4.97527 -154.83265,48.59638 -199.47745,116.2929 -57.18375,86.68528 -57.07237,200.9467 0.33946,286.61359 42.26856,62.94933 105.44596,102.84695 181.05093,114.26142 16.05028,2.37094 53.45496,2.71041 68.37545,0.45085 58.88107,-8.58738 107.25467,-31.86717 147.82591,-71.31393 41.70632,-40.34847 66.90621,-88.3773 76.74005,-146.35667 3.27795,-19.66769 3.61742,-57.86798 0.56754,-77.41898 C 751.33935,421.08508 735.0663,381.98309 708.50325,346.38182 697.31686,331.46132 672.45113,306.4842 657.98678,295.63727 607.01416,257.43698 546.66385,239.46661 482.9242,243.42348 Z m 3.38934,59.22054 c 0,18.30983 0.9017,21.81055 6.77867,24.86573 1.8087,0.9017 5.64889,1.69731 8.58737,1.69731 4.40773,0 5.76558,-0.56754 9.04353,-3.84018 2.14817,-2.14817 3.84019,-4.74719 3.95688,-5.98836 0,-1.12977 0.11138,-8.92683 0.22277,-17.29144 l 0.22808,-15.25465 6.21643,0.33946 c 17.06336,0.79031 40.34846,6.5559 61.3687,15.03188 66.1159,26.67444 116.07013,86.68529 130.19501,156.3019 1.46924,7.57429 3.04987,17.40283 3.50072,21.81056 l 0.79031,8.24791 H 700.5895 c -18.76068,0 -21.81055,0.9017 -24.86573,7.23482 -2.25956,4.74719 -2.25956,8.58738 -0.22277,13.56264 2.82709,6.89536 4.85857,7.4576 24.29818,7.4576 h 17.40283 l -0.79031,8.70407 c -3.61741,39.10199 -21.35971,81.71001 -47.80606,114.48419 -8.02514,9.94523 -25.0885,26.66913 -34.81096,34.01534 -32.32333,24.74903 -72.44371,40.9107 -110.98347,44.52811 l -8.02514,0.79031 v -16.95197 c 0,-18.53791 -0.56754,-20.56939 -6.21643,-23.95873 -4.29634,-2.7104 -9.60577,-2.82709 -14.9152,-0.67892 -6.32781,2.7104 -7.34621,6.21643 -7.34621,24.97711 v 16.38974 h -3.04987 c -1.8087,0 -8.24791,-0.79031 -14.35295,-1.69732 -61.02394,-9.16022 -114.48419,-43.28695 -148.72761,-94.59903 -20.11854,-30.28654 -31.30494,-61.48009 -35.60128,-99.569 l -0.67892,-6.44451 h 17.6309 17.74229 l 3.84019,-3.84549 c 3.50602,-3.50072 3.84018,-4.51911 3.84018,-10.28469 0,-5.76558 -0.33946,-6.77867 -3.84018,-10.2847 l -3.84019,-3.84018 h -17.6309 c -9.71716,0 -17.63091,-0.22808 -17.63091,-0.45085 0,-0.33947 0.79032,-6.32782 1.69732,-13.33457 10.51277,-80.018 63.96773,-147.03559 139.578,-175.29065 12.43286,-4.63581 29.7243,-9.15492 41.8177,-10.85224 4.63581,-0.67893 9.71716,-1.46924 11.30309,-1.69732 8.58738,-1.23586 7.90845,-2.59372 7.90845,15.71612 z"
   id="path411"
   style="stroke-width:0.0530412;fill-opacity:1;fill:#8995ad" /><path
   d="M 551.18296,401.19462 450.48419,451.5997 400.07911,552.63794 c -27.80422,55.49174 -50.51647,101.14963 -50.51647,101.48909 0,0.33947 45.5465,-22.15002 101.26101,-50.06562 l 101.26101,-50.51646 50.74455,-101.48909 c 27.9156,-55.71981 50.40508,-101.37771 49.95423,-101.26101 -0.56224,-0.005 -46.22013,22.71225 -101.60048,50.39977 z m -49.72615,101.93994 33.79257,33.79257 -66.90621,33.56449 c -36.84244,18.42122 -67.24567,33.22503 -67.58514,33.00225 -0.45085,-0.45085 66.00451,-134.15188 66.67813,-134.15188 0.11669,0 15.48804,15.25997 34.02065,33.79257 z"
   id="path413"
   style="stroke-width:0.0530412;fill:#ffffff;fill-opacity:1" /></svg>
