<?xml version="1.0" encoding="UTF-8" standalone="no"?>
<!-- Svg Vector Icons : http://www.onlinewebfonts.com/icon -->

<svg
   version="1.1"
   x="0px"
   y="0px"
   width="100"
   height="100"
   viewBox="0 0 1000 1000"
   xml:space="preserve"
   id="svg79"
   sodipodi:docname="moisture.svg"
   inkscape:version="1.2 (dc2aedaf03, 2022-05-15)"
   xmlns:inkscape="http://www.inkscape.org/namespaces/inkscape"
   xmlns:sodipodi="http://sodipodi.sourceforge.net/DTD/sodipodi-0.dtd"
   xmlns="http://www.w3.org/2000/svg"
   xmlns:svg="http://www.w3.org/2000/svg"><sodipodi:namedview
   id="namedview105"
   pagecolor="#8696ae"
   bordercolor="#111111"
   borderopacity="1"
   inkscape:showpageshadow="0"
   inkscape:pageopacity="0"
   inkscape:pagecheckerboard="false"
   inkscape:deskcolor="#d1d1d1"
   showgrid="false"
   showborder="true"
   inkscape:zoom="5.9644457"
   inkscape:cx="-15.843886"
   inkscape:cy="56.669139"
   inkscape:window-width="3840"
   inkscape:window-height="2054"
   inkscape:window-x="-5"
   inkscape:window-y="-11"
   inkscape:window-maximized="1"
   inkscape:current-layer="svg79" /><defs
   id="defs83" />
<text
   xml:space="preserve"
   style="font-size:180.872px;fill:#364156;fill-opacity:1;stroke-width:11.3045"
   x="436.00052"
   y="169.36891"
   id="text4588"><tspan
     sodipodi:role="line"
     id="tspan4586"
     style="font-style:normal;font-variant:normal;font-weight:bold;font-stretch:normal;font-size:180.872px;font-family:sans-serif;-inkscape-font-specification:'sans-serif Bold';stroke-width:11.3045"
     x="436.00052"
     y="169.36891" /></text><g
   id="g12353"
   transform="matrix(3.1226038,0,0,3.1226038,60.32558,59.626309)"><g
     id="g12297">
	<path
   style="fill:#3caed6"
   d="M 245.023,175.017 C 245.023,119.012 148.764,9.626 140.888,0.875 v 0 0 0 c 0,0 -105.885,116.386 -105.885,174.142 0,57.756 47.255,105.01 105.01,105.01 3.5,0 7.876,0 11.376,-0.875 0.875,0 1.75,0 2.625,-0.875 2.625,0 5.251,-0.875 7.876,-0.875 0.875,0 1.75,-0.875 3.5,-0.875 2.625,-0.875 5.251,-0.875 7.876,-1.75 0.875,0 1.75,-0.875 2.625,-0.875 2.625,-0.875 5.251,-1.75 7.876,-2.625 0.875,0 1.75,-0.875 1.75,-0.875 2.625,-0.875 5.251,-2.625 7.876,-4.375 0.875,0 0.875,-0.875 1.75,-0.875 2.625,-1.75 5.251,-3.5 7.876,-5.251 0,0 0.875,0 0.875,-0.875 2.625,-1.75 5.251,-4.375 7.876,-6.126 v 0 c 20.127,-20.127 33.253,-47.255 33.253,-77.883 z"
   id="path12291" />
	<path
   style="fill:#63bfde"
   d="m 183.768,140.014 c -9.626,0 -17.502,7.876 -17.502,17.502 0,9.626 7.876,17.502 17.502,17.502 9.626,0 17.502,-7.876 17.502,-17.502 0,-9.627 -7.877,-17.502 -17.502,-17.502 z"
   id="path12293" />
	<path
   style="fill:#369dc0"
   d="m 148.764,271.276 c -57.756,0 -105.01,-47.255 -105.01,-105.01 0,-48.13 71.757,-136.513 97.134,-165.391 L 140.014,0 c 0,0 -105.01,117.261 -105.01,175.017 0,57.756 47.255,105.01 105.01,105.01 31.503,0 59.506,-14.001 78.758,-35.003 -19.254,15.751 -42.881,26.252 -70.008,26.252 z"
   id="path12295" />
</g><g
     id="g12299">
</g><g
     id="g12301">
</g><g
     id="g12303">
</g><g
     id="g12305">
</g><g
     id="g12307">
</g><g
     id="g12309">
</g><g
     id="g12311">
</g><g
     id="g12313">
</g><g
     id="g12315">
</g><g
     id="g12317">
</g><g
     id="g12319">
</g><g
     id="g12321">
</g><g
     id="g12323">
</g><g
     id="g12325">
</g><g
     id="g12327">
</g></g></svg>
