<?xml version="1.0" encoding="UTF-8" standalone="no"?>
<!-- Svg Vector Icons : http://www.onlinewebfonts.com/icon -->

<svg
   version="1.1"
   x="0px"
   y="0px"
   width="150"
   height="150"
   viewBox="0 0 1000 1000"
   xml:space="preserve"
   id="svg79"
   xmlns="http://www.w3.org/2000/svg"

>
<path
   d="m 493.33721,213.37945 c -90.33061,5.6243 -175.03093,54.93589 -225.49974,131.46357 -64.64351,97.99358 -64.5176,227.16066 0.38374,324.003 47.78259,71.16121 119.20163,116.26357 204.66944,129.16708 18.14408,2.68024 60.42828,3.06399 77.29519,0.50967 66.56224,-9.70762 121.24629,-36.02432 167.11014,-80.617 47.147,-45.61202 75.63428,-99.90632 86.75096,-165.44923 3.70557,-22.23339 4.08933,-65.417 0.64158,-87.51847 -7.92078,-50.72066 -26.31669,-94.92359 -56.34495,-135.16913 -12.64568,-16.86691 -40.7552,-45.10236 -57.10646,-57.36429 -57.62212,-43.18361 -125.84527,-63.49826 -197.8999,-59.0252 z m 3.83149,66.94599 c 0,20.69839 1.01933,24.65579 7.66296,28.10952 2.04465,1.01933 6.3858,1.91873 9.70761,1.91873 4.98273,0 6.51772,-0.64157 10.22328,-4.34114 2.42841,-2.4284 4.34115,-5.36647 4.47307,-6.76955 0,-1.27715 0.12591,-10.09136 0.25183,-19.54715 l 0.25783,-17.24466 7.02738,0.38375 c 19.28931,0.89341 45.61201,7.41113 69.37439,16.99282 74.74087,30.15418 131.21174,97.99359 147.17925,176.69184 1.6609,8.56238 3.44773,19.67307 3.95739,24.6558 l 0.89341,9.32387 h -18.77965 c -21.20805,0 -24.65579,1.01933 -28.10952,8.17862 -2.55433,5.36647 -2.55433,9.70762 -0.25183,15.33192 3.19589,7.79487 5.49238,8.43046 27.46793,8.43046 h 19.67307 l -0.89341,9.83954 c -4.08931,44.20293 -24.14613,92.36926 -54.04247,129.41891 -9.07204,11.24261 -28.36135,30.14818 -39.35213,38.45272 -36.53998,27.9776 -81.89416,46.2476 -125.46152,50.33691 l -9.07204,0.8934 v -19.16339 c 0,-20.95622 -0.64157,-23.25271 -7.02737,-27.0842 -4.85681,-3.06398 -10.85887,-3.19589 -16.86093,-0.76749 -7.15328,3.06398 -8.30454,7.02738 -8.30454,28.23543 v 18.52782 h -3.44773 c -2.04465,0 -9.32387,-0.8934 -16.22532,-1.91874 C 408.50498,738.85599 348.07072,700.27735 309.36017,642.27149 286.61712,608.034 273.97142,572.77118 269.11462,529.71349 l -0.76749,-7.28521 h 19.93089 20.05681 l 4.34116,-4.34715 c 3.96338,-3.95739 4.34114,-5.10864 4.34114,-11.62635 0,-6.51771 -0.38375,-7.66296 -4.34114,-11.62636 l -4.34116,-4.34114 h -19.93089 c -10.98478,0 -19.9309,-0.25784 -19.9309,-0.50967 0,-0.38375 0.89342,-7.1533 1.91874,-15.07409 11.88418,-90.45654 72.31247,-166.21672 157.78627,-198.15772 14.05476,-5.24056 33.60191,-10.3492 47.27292,-12.26794 5.24056,-0.7675 10.98478,-1.66091 12.7776,-1.91874 9.70763,-1.39708 8.94013,-2.93208 8.94013,17.76632 z"
   id="path411"
   style="fill:#4c8476;fill-opacity:1;stroke-width:0.0599605" /><path
   d="m 393.22258,547.36119 120.78492,40.20229 121.0563,-40.47365 c 66.58267,-22.13202 121.23437,-40.47364 121.50571,-40.74498 0.27136,-0.27136 -54.11324,-18.70199 -120.96301,-40.92307 L 514.28311,424.8591 392.59507,465.42178 c -66.85401,22.22531 -121.32764,40.745 -120.87397,41.0121 0.44518,0.45367 55.10112,18.79103 121.50148,40.92731 z m 121.23436,-41.73712 v -54.02422 l 80.3113,26.65173 c 44.17503,14.72501 80.3113,27.19441 80.40458,27.64385 0,0.72077 -159.99511,54.47363 -160.53357,53.93517 -0.0933,-0.0933 -0.18231,-24.57844 -0.18231,-54.20653 z"
   id="path413"
   style="fill:#ffffff;fill-opacity:1;stroke-width:0.0599605" /><text
   xml:space="preserve"
   style="font-size:180.872px;fill:#364156;fill-opacity:1;stroke-width:11.3045"
   x="436.00052"
   y="169.36891"
   id="text4588"><tspan
     id="tspan4586"
     style="font-style:normal;font-variant:normal;font-weight:bold;font-stretch:normal;font-size:180.872px;font-family:sans-serif;-inkscape-font-specification:'sans-serif Bold';stroke-width:11.3045"
     x="436.00052"
     y="169.36891">N</tspan></text><text
   xml:space="preserve"
   style="font-size:180.872px;fill:#364156;fill-opacity:1;stroke-width:11.3045"
   x="453.42142"
   y="953.18127"
   id="text4588-3"><tspan
     style="font-style:normal;font-variant:normal;font-weight:bold;font-stretch:normal;font-size:180.872px;font-family:sans-serif;-inkscape-font-specification:'sans-serif Bold';stroke-width:11.3045"
     x="453.42142"
     y="953.18127"
     id="tspan4667">Z</tspan></text><text
   xml:space="preserve"
   style="font-style:normal;font-variant:normal;font-weight:bold;font-stretch:normal;font-size:180.872px;font-family:sans-serif;-inkscape-font-specification:'sans-serif Bold';fill:#364156;fill-opacity:1;stroke-width:11.3045"
   x="4.9947538"
   y="577.5119"
   id="text4673"><tspan
     id="tspan4671"
     style="stroke-width:11.3045"
     x="4.9947538"
     y="577.5119">W</tspan></text><text
   xml:space="preserve"
   style="font-style:normal;font-variant:normal;font-weight:bold;font-stretch:normal;font-size:180.872px;font-family:sans-serif;-inkscape-font-specification:'sans-serif Bold';fill:#364156;fill-opacity:1;stroke-width:11.3045"
   x="843.19849"
   y="572.13495"
   id="text4673-5"><tspan
     style="stroke-width:11.3045"
     x="843.19849"
     y="572.13495"
     id="tspan4702">O</tspan></text></svg>
